<?xml version="1.0" encoding="UTF-8"?>
<!DOCTYPE svg PUBLIC "-//W3C//DTD SVG 1.1//EN" "http://www.w3.org/Graphics/SVG/1.1/DTD/svg11.dtd">
<!-- Creator: CorelDRAW X7 -->
<svg xmlns="http://www.w3.org/2000/svg" xml:space="preserve" height="100%" version="1.1" style="shape-rendering:geometricPrecision; text-rendering:geometricPrecision; image-rendering:optimizeQuality; fill-rule:evenodd; clip-rule:evenodd"
viewBox="0 0 2210 593"
 xmlns:xlink="http://www.w3.org/1999/xlink">
 <defs>
  <style type="text/css">
   <![CDATA[
    .fil0 {fill:#EAC67A;fill-rule:nonzero}
   ]]>
  </style>
 </defs>
 <g>
  <metadata id="logo"/>
  <g id="_2123174526144">
   <polygon class="fil0" points="180,193 180,217 10,139 10,118 180,40 180,65 42,129 "/>
   <polygon id="1" class="fil0" points="227,8 348,8 348,31 251,31 251,107 348,107 348,131 251,131 251,250 227,250 "/>
   <path id="2" class="fil0" d="M538 191l19 10c-6,12 -14,22 -22,30 -8,7 -18,13 -28,17 -11,4 -23,6 -36,6 -29,0 -52,-9 -68,-28 -17,-20 -25,-41 -25,-65 0,-23 7,-43 21,-61 18,-22 41,-34 71,-34 31,0 55,12 73,35 13,16 20,37 20,61l-162 0c1,21 8,38 20,51 13,13 29,20 48,20 9,0 18,-2 27,-5 9,-3 16,-7 22,-12 6,-5 13,-14 20,-25zm0 -49c-3,-12 -8,-22 -14,-29 -6,-8 -13,-13 -23,-18 -10,-4 -20,-7 -31,-7 -17,0 -33,6 -45,17 -10,9 -17,21 -21,37l134 0z"/>
   <path id="3" class="fil0" d="M597 71l23 0 0 26c8,-10 15,-18 23,-23 8,-5 16,-8 24,-8 7,0 13,2 21,6l-12 20c-5,-2 -9,-3 -13,-3 -7,0 -15,3 -22,9 -7,6 -12,16 -16,30 -3,10 -5,30 -5,61l0 61 -23 0 0 -179z"/>
   <path id="4" class="fil0" d="M707 71l23 0 0 32c9,-12 20,-22 31,-28 11,-6 23,-9 36,-9 14,0 26,4 36,11 10,6 18,16 23,27 5,12 8,29 8,54l0 92 -23 0 0 -85c0,-21 -1,-35 -3,-42 -3,-12 -8,-20 -16,-26 -7,-6 -17,-9 -29,-9 -14,0 -27,4 -38,13 -11,10 -18,21 -22,35 -2,9 -3,25 -3,48l0 66 -23 0 0 -179z"/>
   <path id="5" class="fil0" d="M1091 71l0 179 -23 0 0 -31c-10,12 -20,21 -32,26 -12,6 -25,9 -40,9 -25,0 -47,-9 -65,-27 -17,-19 -26,-41 -26,-67 0,-26 9,-48 27,-66 18,-18 40,-28 65,-28 15,0 28,4 40,10 12,6 22,15 31,28l0 -33 23 0zm-92 18c-13,0 -25,3 -36,9 -11,6 -19,15 -26,27 -6,11 -9,23 -9,36 0,12 3,24 10,36 6,11 15,20 26,26 10,7 22,10 35,10 12,0 24,-3 35,-10 12,-6 20,-14 26,-25 6,-11 9,-23 9,-37 0,-20 -6,-38 -20,-52 -14,-13 -30,-20 -50,-20z"/>
   <path id="6" class="fil0" d="M1143 71l23 0 0 32c9,-12 19,-22 31,-28 11,-6 23,-9 36,-9 14,0 26,4 36,11 10,6 18,16 23,27 5,12 7,29 7,54l0 92 -22 0 0 -85c0,-21 -1,-35 -3,-42 -3,-12 -8,-20 -16,-26 -7,-6 -17,-9 -29,-9 -14,0 -27,4 -38,13 -11,10 -18,21 -22,35 -2,9 -3,25 -3,48l0 66 -23 0 0 -179z"/>
   <path id="7" class="fil0" d="M1527 2l0 248 -23 0 0 -31c-9,12 -20,21 -32,26 -12,6 -25,9 -39,9 -26,0 -47,-9 -65,-27 -18,-19 -27,-41 -27,-67 0,-26 9,-48 27,-66 18,-18 40,-28 65,-28 15,0 28,4 40,10 12,6 22,15 31,28l0 -102 23 0zm-92 87c-13,0 -25,3 -35,9 -11,6 -20,15 -26,27 -7,11 -10,23 -10,36 0,12 3,24 10,36 6,11 15,20 26,26 11,7 22,10 35,10 12,0 24,-3 36,-10 11,-6 20,-14 26,-25 6,-11 9,-23 9,-37 0,-20 -7,-38 -21,-52 -13,-13 -30,-20 -50,-20z"/>
   <path id="8" class="fil0" d="M1664 66c28,0 51,10 69,30 17,18 25,40 25,65 0,25 -9,47 -26,65 -18,19 -40,28 -68,28 -27,0 -50,-9 -67,-28 -17,-18 -26,-40 -26,-65 0,-25 8,-46 25,-65 18,-20 41,-30 68,-30zm0 23c-19,0 -35,7 -49,21 -14,14 -21,31 -21,51 0,13 4,25 10,36 6,12 15,20 25,26 11,6 23,9 35,9 13,0 25,-3 35,-9 11,-6 20,-14 26,-26 6,-11 9,-23 9,-36 0,-20 -7,-37 -20,-51 -14,-14 -31,-21 -50,-21z"/>
   <path class="fil0" d="M501 516l21 -12c14,26 31,40 50,40 8,0 16,-2 23,-6 7,-4 12,-9 16,-15 4,-6 6,-13 6,-20 0,-8 -3,-16 -8,-24 -8,-11 -22,-24 -42,-39 -20,-15 -33,-26 -38,-33 -8,-12 -13,-24 -13,-37 0,-11 3,-20 8,-29 5,-9 12,-15 21,-20 10,-5 19,-8 30,-8 12,0 22,3 32,9 10,5 21,16 32,31l-20 15c-9,-12 -17,-20 -23,-24 -7,-4 -14,-6 -21,-6 -10,0 -18,3 -24,9 -7,6 -10,13 -10,22 0,5 1,10 4,15 2,5 6,10 12,16 3,3 13,11 31,24 21,16 36,30 43,42 8,12 12,24 12,36 0,18 -7,33 -20,46 -13,13 -30,19 -49,19 -14,0 -28,-4 -40,-11 -12,-8 -23,-21 -33,-40z"/>
   <path id="1" class="fil0" d="M841 502l20 10c-7,13 -14,23 -22,30 -9,8 -18,14 -28,18 -11,4 -23,6 -36,6 -29,0 -52,-10 -69,-29 -16,-19 -24,-41 -24,-65 0,-22 7,-43 21,-60 17,-23 41,-34 71,-34 30,0 55,11 73,35 13,16 20,36 20,61l-162 0c1,20 7,37 20,51 13,13 29,19 48,19 9,0 18,-1 27,-4 8,-3 16,-8 22,-13 6,-5 12,-13 19,-25zm1 -48c-3,-13 -8,-22 -14,-30 -6,-7 -14,-13 -23,-17 -10,-5 -20,-7 -31,-7 -18,0 -33,5 -45,17 -10,8 -17,20 -22,37l135 0z"/>
   <polygon id="2" class="fil0" points="893,382 917,382 977,513 1037,382 1061,382 980,561 975,561 "/>
   <path id="3" class="fil0" d="M1247 502l20 10c-7,13 -14,23 -22,30 -9,8 -18,14 -29,18 -10,4 -22,6 -35,6 -29,0 -52,-10 -69,-29 -16,-19 -25,-41 -25,-65 0,-22 7,-43 21,-60 18,-23 42,-34 72,-34 30,0 55,11 73,35 13,16 20,36 20,61l-162 0c1,20 7,37 20,51 13,13 29,19 48,19 9,0 18,-1 27,-4 8,-3 16,-8 22,-13 6,-5 12,-13 19,-25zm1 -48c-3,-13 -8,-22 -14,-30 -6,-7 -14,-13 -23,-17 -10,-5 -20,-7 -31,-7 -18,0 -33,5 -46,17 -9,8 -16,20 -21,37l135 0z"/>
   <path id="4" class="fil0" d="M1307 382l23 0 0 26c7,-10 15,-18 22,-23 8,-5 16,-7 25,-7 6,0 13,2 20,6l-12 19c-5,-2 -9,-3 -12,-3 -8,0 -15,3 -22,10 -7,6 -13,16 -17,29 -2,10 -4,31 -4,62l0 60 -23 0 0 -179z"/>
   <path id="5" class="fil0" d="M1425 309c5,0 9,2 13,5 4,4 6,9 6,14 0,5 -2,10 -6,13 -4,4 -8,6 -13,6 -5,0 -10,-2 -13,-6 -4,-3 -6,-8 -6,-13 0,-5 2,-10 6,-14 3,-3 8,-5 13,-5zm-12 73l23 0 0 179 -23 0 0 -179z"/>
   <path id="6" class="fil0" d="M1484 382l23 0 0 32c9,-12 20,-21 31,-27 11,-6 23,-9 37,-9 13,0 25,3 35,10 11,7 18,16 23,28 5,11 8,29 8,53l0 92 -23 0 0 -85c0,-21 -1,-34 -3,-41 -3,-12 -8,-21 -15,-27 -8,-6 -18,-9 -30,-9 -14,0 -27,5 -38,14 -11,9 -18,21 -21,34 -3,9 -4,25 -4,49l0 65 -23 0 0 -179z"/>
   <path id="7" class="fil0" d="M1775 378c27,0 50,10 68,30 17,18 25,39 25,64 0,25 -8,47 -26,66 -17,18 -40,28 -67,28 -28,0 -50,-10 -68,-28 -17,-19 -26,-41 -26,-66 0,-24 8,-46 25,-64 18,-20 41,-30 69,-30zm0 22c-20,0 -36,8 -50,22 -13,14 -20,31 -20,51 0,13 3,25 9,36 6,11 15,20 26,26 10,6 22,9 35,9 12,0 24,-3 35,-9 10,-6 19,-15 25,-26 6,-11 10,-23 10,-36 0,-20 -7,-37 -21,-51 -14,-14 -30,-22 -49,-22z"/>
   <polygon id="8" class="fil0" points="2023,313 1922,594 1897,594 1997,313 "/>
   <polygon id="9" class="fil0" points="2050,504 2188,440 2050,376 2050,352 2219,430 2219,451 2050,528 "/>
  </g>
 </g>
</svg>
